HIERARCHY
ROOT hip
{
	OFFSET 0.000000 0.000000 0.000000 
	CHANNELS 6 Xposition Yposition Zposition Xrotation Zrotation Yrotation
	JOINT abdomen
	{
		OFFSET 0.000000 3.402643 0.000000 
		CHANNELS 3 Xrotation Zrotation Yrotation
		JOINT chest
		{
			OFFSET 0.000000 8.438565 -0.680529 
			CHANNELS 3 Xrotation Zrotation Yrotation
			JOINT neck
			{
				OFFSET 0.000000 10.207942 -0.272212 
				CHANNELS 3 Xrotation Zrotation Yrotation
				JOINT head
				{
					OFFSET 0.000000 3.130431 0.000000 
					CHANNELS 3 Xrotation Zrotation Yrotation
					End Site
					{
						OFFSET 0.000000 3.130435 0.000000 
					}
				}
			}
			JOINT lCollar
			{
				OFFSET 3.470700 6.669187 -0.816635 
				CHANNELS 3 Yrotation Zrotation Xrotation
				JOINT lShldr
				{
					OFFSET 3.198488 0.000000 0.000000 
					CHANNELS 3 Zrotation Yrotation Xrotation
					JOINT lForeArm
					{
						OFFSET 10.139888 0.000000 0.000000 
						CHANNELS 3 Yrotation Zrotation Xrotation
						JOINT lHand
						{
							OFFSET 8.370511 0.000000 0.000000 
							CHANNELS 3 Zrotation Yrotation Xrotation
							End Site
							{
								OFFSET 4.083176 0.000000 0.000000 
							}
						}
					}
				}
			}
			JOINT rCollar
			{
				OFFSET -3.470700 6.669187 -0.816635 
				CHANNELS 3 Yrotation Zrotation Xrotation
				JOINT rShldr
				{
					OFFSET -3.198488 0.000000 0.000000 
					CHANNELS 3 Zrotation Yrotation Xrotation
					JOINT rForeArm
					{
						OFFSET -10.139888 0.000000 0.000000 
						CHANNELS 3 Yrotation Zrotation Xrotation
						JOINT rHand
						{
							OFFSET -8.370511 0.000000 0.000000 
							CHANNELS 3 Zrotation Yrotation Xrotation
							End Site
							{
								OFFSET -4.083176 0.000000 0.000000 
							}
						}
					}
				}
			}
		}
	}
	JOINT lThigh
	{
		OFFSET 5.308129 -1.633274 1.361059 
		CHANNELS 3 Xrotation Zrotation Yrotation
		JOINT lShin
		{
			OFFSET -2.041588 -20.007561 0.000000 
			CHANNELS 3 Xrotation Zrotation Yrotation
			JOINT lFoot
			{
				OFFSET 0.000000 -19.190928 -1.224953 
				CHANNELS 3 Xrotation Yrotation Zrotation
				End Site
				{
					OFFSET 0.000000 -2.449906 4.627600 
				}
			}
		}
	}
	JOINT rThigh
	{
		OFFSET -5.308129 -1.633274 1.361059 
		CHANNELS 3 Xrotation Zrotation Yrotation
		JOINT rShin
		{
			OFFSET 2.041588 -20.007561 0.000000 
			CHANNELS 3 Xrotation Zrotation Yrotation
			JOINT rFoot
			{
				OFFSET 0.000000 -19.190928 -1.224953 
				CHANNELS 3 Xrotation Yrotation Zrotation
				End Site
				{
					OFFSET 0.000000 -2.449906 4.627600 
				}
			}
		}
	}
}
MOTION
Frames: 14
Frame Time: 0.033333
-20.795858 43.499107 -12.718266 -1.276766 6.102012 74.122841 36.235920 -11.304258 2.498045 -20.839844 0.000000 0.000000 -14.152853 15.998471 2.074267 -2.520848 -1.255046 0.218349 -4.754609 -0.109184 -0.002653 -57.757206 1.727594 -8.390391 -85.328270 -12.097245 -11.950706 -14.565083 -0.293625 -19.810495 4.754609 0.109184 -0.002672 90.427460 -32.207130 -11.444360 85.394264 21.863514 22.607653 6.835870 5.132998 31.132917 3.806908 14.764178 20.205669 16.495804 -10.007820 14.359254 -23.074598 -0.747365 -5.158155 -7.166212 -9.713892 -5.399358 -5.226610 -1.988678 -1.785586 2.502825 1.744728 7.337852 
-20.808554 43.192467 -12.372538 -0.735535 5.273005 73.692451 37.090832 -10.318459 1.661861 -20.839844 0.000000 0.000000 -17.349466 16.512270 0.936624 -2.520848 -1.255046 0.218349 -4.754609 -0.109184 -0.002653 -57.002930 1.526214 -8.152388 -85.227242 -12.662483 -12.268462 -14.034276 0.105159 -20.441040 4.754609 0.109184 -0.002672 89.714066 -31.811941 -11.067122 86.435066 21.960434 22.038155 6.870796 4.847574 30.850271 1.638890 15.651344 20.051634 19.480074 -10.552026 13.556124 -23.617609 -0.275551 -5.018963 -8.006646 -10.427584 -5.264853 -5.374830 -0.399776 -0.638882 3.629955 2.692583 8.535254 
-20.719213 42.779213 -12.061840 -0.352792 4.785066 73.300751 37.749420 -9.293701 1.329589 -20.839844 0.000000 0.000000 -18.213079 17.192715 0.007126 -2.520848 -1.255046 0.218349 -4.754609 -0.109184 -0.002653 -56.196793 1.405655 -7.744903 -85.496132 -13.514692 -12.293236 -13.359937 0.958704 -20.623104 4.754609 0.109184 -0.002672 89.963631 -31.687105 -11.206343 86.884163 21.672485 22.082331 6.376982 5.276556 31.216747 -0.655851 16.449944 19.125872 23.184330 -10.721840 12.310306 -23.639490 0.872515 -4.354361 -7.928391 -9.929740 -4.325674 -5.419585 -1.513315 -0.284101 5.656303 1.829136 9.352106 
-20.560301 42.311127 -11.839481 0.421193 4.453005 72.982582 38.492615 -8.712146 0.945365 -20.839844 0.000000 0.000000 -16.945723 18.001621 -0.351657 -2.520848 -1.255046 0.218349 -4.754609 -0.109184 -0.002653 -55.716946 0.627294 -7.472251 -85.393677 -13.837128 -12.651774 -13.026200 2.073979 -21.371119 4.754609 0.109184 -0.002672 89.959137 -30.975010 -10.630356 86.803772 21.770510 22.161385 4.903601 5.203395 31.189766 -3.037349 16.639944 17.994871 27.097158 -10.877018 11.275931 -24.024649 1.782546 -3.158032 -12.225859 -10.692641 -4.923469 2.219744 -1.606336 0.131207 3.209854 2.541138 9.040854 
-20.298338 42.043068 -11.750633 0.127262 3.994131 72.236084 39.257805 -6.986287 2.294325 -20.839844 0.000000 0.000000 -14.653462 18.675627 -0.804362 -2.520848 -1.255046 0.218349 -4.754609 -0.109184 -0.002653 -56.164520 -0.743375 -7.189164 -84.918495 -13.609385 -12.955305 -12.642039 2.874093 -22.042130 4.754609 0.109184 -0.002672 90.309235 -30.360374 -10.544867 87.075340 21.314468 22.069538 4.032746 4.791020 31.189171 -4.384962 17.544598 17.692942 29.813793 -10.849623 10.625449 -24.544130 2.528322 -2.237385 -14.576097 -11.119271 -6.843501 6.404942 -0.136621 -0.142057 2.115556 5.644161 8.051504 
-19.990171 41.856247 -11.567867 -0.342392 3.378846 71.395874 39.464458 -5.495869 3.592281 -20.839844 0.000000 0.000000 -12.176747 19.502028 -0.910311 -2.520848 -1.255046 0.218349 -4.754609 -0.109184 -0.002653 -57.899693 -1.598300 -7.147048 -84.731873 -12.690655 -12.723006 -12.121949 3.244135 -21.633266 4.754609 0.109184 -0.002672 90.593727 -30.556662 -11.168865 88.637459 20.652157 21.268888 4.963843 4.235519 30.903788 -5.195708 18.669315 17.755709 31.717514 -10.771926 10.257168 -25.292374 3.298576 -2.025147 -16.364208 -10.339617 -5.688312 9.223427 -0.195218 0.495487 1.568380 4.816105 7.989441 
-19.696234 41.726784 -11.371906 -0.645654 3.378692 70.274513 39.838272 -4.713307 4.449118 -20.839844 0.000000 0.000000 -9.780416 20.747618 -1.107743 -2.520848 -1.255046 0.218349 -4.754609 -0.109184 -0.002653 -59.878773 -1.719565 -7.319893 -84.839294 -11.572786 -12.282084 -11.423747 3.853289 -20.798300 4.754609 0.109184 -0.002672 90.479752 -30.957287 -11.844114 90.135269 20.061176 21.044163 6.221382 3.897231 31.425318 -4.824432 19.345324 18.160524 32.879921 -10.870038 10.266865 -26.160398 3.769539 -1.927491 -17.290985 -9.519085 -4.039751 11.261559 -0.624566 1.433206 1.130421 3.340944 8.143119 
-19.438833 41.622208 -11.235847 -0.421016 4.130748 69.667015 40.463665 -4.492884 4.521510 -20.839844 0.000000 0.000000 -8.337464 21.922522 -2.460956 -2.520848 -1.255046 0.218349 -4.754609 -0.109184 -0.002653 -61.387802 -1.506539 -7.378218 -85.366135 -10.972705 -12.338168 -10.296251 4.996735 -20.708605 4.754609 0.109184 -0.002672 90.351997 -30.829988 -12.248868 90.130333 19.311983 21.712576 6.901044 4.105483 32.494225 -4.004411 18.851862 17.936575 33.543598 -10.899272 10.385404 -26.818104 4.122200 -1.357006 -17.819651 -9.969111 -4.186428 13.979929 -0.751650 2.055237 0.135757 3.803374 7.799931 
-19.250479 41.504425 -11.133808 -0.176325 4.501932 69.702995 40.606258 -4.395803 4.063110 -20.839844 0.000000 0.000000 -8.354498 22.412268 -4.649745 -2.520848 -1.255046 0.218349 -4.754609 -0.109184 -0.002653 -61.522739 -1.380213 -7.216199 -86.091728 -11.226771 -12.445013 -8.810937 6.208244 -20.720819 4.754609 0.109184 -0.002672 90.800652 -30.158024 -12.379618 89.237999 18.403994 22.554583 7.346020 4.696962 33.415199 -4.199618 18.397898 17.268457 34.557682 -10.713309 9.962053 -27.347513 4.147964 -0.330183 -18.456709 -10.410186 -4.737425 16.227400 -1.035372 2.188871 -0.937408 4.406886 8.023232 
-19.115438 41.470413 -11.072376 -0.127403 4.814441 69.891685 40.650906 -4.388156 3.655824 -20.839844 0.000000 0.000000 -9.390819 22.845686 -7.190781 -2.520848 -1.255046 0.218349 -4.754609 -0.109184 -0.002653 -61.165703 -1.355428 -6.849579 -86.418930 -11.908725 -11.995765 -7.486464 6.827206 -20.000900 4.754609 0.109184 -0.002672 91.366127 -29.614010 -12.509157 88.385651 17.647837 23.234322 7.931653 4.994719 34.124699 -4.199359 17.979227 16.552881 35.077129 -10.346582 9.347259 -27.880432 3.882027 0.614018 -18.459400 -10.571296 -4.905700 17.258432 -1.259109 2.198979 -1.672202 4.472279 8.181431 
-19.056547 41.511536 -11.101311 -0.362945 5.410048 69.907333 40.760376 -4.324646 3.545663 -20.839844 0.000000 0.000000 -10.120144 22.998087 -8.886134 -2.520848 -1.255046 0.218349 -4.754609 -0.109184 -0.002653 -61.366695 -0.882456 -6.374681 -86.823265 -12.705937 -11.053908 -6.824098 6.600250 -18.503412 4.754609 0.109184 -0.002672 91.640610 -29.388720 -12.629082 88.008881 17.271795 23.083344 8.850037 4.477388 33.738438 -3.252179 17.896389 16.543175 34.738617 -10.211767 8.754829 -27.697224 3.310265 -0.076234 -17.532555 -10.679017 -4.771973 16.972404 -1.113358 2.278568 -1.684336 4.148149 8.221783 
-19.082441 41.599365 -11.195232 -0.805100 5.936918 69.673027 40.550728 -4.383066 3.715174 -20.839844 0.000000 0.000000 -10.515545 22.771591 -9.692254 -2.520848 -1.255046 0.218349 -4.754609 -0.109184 -0.002653 -62.001328 0.087396 -5.699847 -87.619637 -13.840513 -10.037394 -6.810563 6.348790 -16.810165 4.754609 0.109184 -0.002672 91.970261 -29.122288 -12.700706 87.480255 16.889933 22.910101 9.380491 4.121407 33.242783 -1.720123 18.128515 17.406490 33.385723 -10.478786 8.809531 -27.228710 2.381146 -0.601575 -16.263948 -10.425780 -4.403073 15.680009 -0.954096 2.309296 -1.307910 3.731520 8.285904 
-19.157080 41.798363 -11.337383 -1.160497 6.795495 69.697617 40.331387 -4.813582 3.462339 -20.839844 0.000000 0.000000 -10.680038 22.743322 -10.010998 -2.520848 -1.255046 0.218349 -4.754609 -0.109184 -0.002653 -62.205143 0.776100 -4.620742 -87.845047 -15.645633 -9.289264 -7.572527 5.844503 -15.771725 4.754609 0.109184 -0.002672 92.401138 -28.834576 -12.645347 86.740318 16.694317 22.897781 9.434510 4.133914 32.919834 0.554783 18.109749 18.620762 31.085512 -10.890479 9.247054 -26.012075 1.186481 -1.702098 -13.992564 -10.555312 -5.004804 13.198278 -0.771231 1.989637 -0.763521 4.395757 8.363439 
-19.201239 42.045113 -11.475471 -1.489159 8.014906 69.968765 39.903507 -5.435659 2.808860 -20.839844 0.000000 0.000000 -9.267065 22.656136 -8.869995 -2.520848 -1.255046 0.218349 -4.754609 -0.109184 -0.002653 -61.848236 1.496848 -3.365091 -87.808380 -17.951553 -9.267239 -8.265677 5.483746 -15.954809 4.754609 0.109184 -0.002672 92.715164 -28.901348 -12.558551 85.899117 16.897888 22.725220 9.477746 3.830868 32.215034 3.141851 17.544662 19.367083 28.475449 -10.995830 9.955117 -25.301474 0.603333 -2.878358 -10.817988 -10.397758 -5.290315 9.722919 -1.337320 1.569971 0.239623 4.466796 9.167061 
